# xmcd
#
# Track frame offsets:
#	150
#	14998
#	31288
#	45601
#	59340
#	70642
#	86713
#	97513
#	110529
#	128240
#	159422
#	181886
#	207474
#	225096
#	244233
#	266342
#
# Disc length: 3890 seconds
#
# Revision: 1
# Processed by: cddbd v1.5.2PL0 Copyright (c) Steve Scherf et al.
# Submitted via: audiograbber 1.83.01
#
DISCID=cd0f3010
DTITLE=B.B. King - B.B. King and Friends [CD 2)
DYEAR=2007
DGENRE=Blues
TTITLE0=Mr. Pawnbroker
TTITLE1=My Own Fault, Darling
TTITLE2=Make A Little Love With Me (Arthur 'Big Boy' Crudup)
TTITLE3=Gonna Find My Baby (Arthur 'Big Boy' Crudup)
TTITLE4=Catfish Blues (aka Fishin' After Me)
TTITLE5=Long Nights (The Feeling They Call The Blues)
TTITLE6=Everybody's Fishing (Willie Love And His Three Aces)
TTITLE7=V-8 Ford (Willie Love And His Three Aces)
TTITLE8=That Evil Child
TTITLE9=I Got Some Help (I Don't Really Need)(aka Outside Help)
TTITLE10=Wang Dang Doodle (Howlin' Wolf)
TTITLE11=The Red Rooster (aka Little Red Rooster) (Howlin' Wolf)
TTITLE12=I'm Losing You (John Lee Hooker With The Groundhogs)
TTITLE13=Waterfront (John Lee Hooker With The Grounghogs)
TTITLE14=The Thrill Is Gone
TTITLE15=Guess Who
EXTD=
EXTT0=
EXTT1=
EXTT2=
EXTT3=
EXTT4=
EXTT5=
EXTT6=
EXTT7=
EXTT8=
EXTT9=
EXTT10=
EXTT11=
EXTT12=
EXTT13=
EXTT14=
EXTT15=
PLAYORDER=
